<?xml version="1.0" encoding="UTF-8"?>
<svg id="Layer_1" xmlns="http://www.w3.org/2000/svg" version="1.1" viewBox="0 0 144 144">
  <!-- Generator: Adobe Illustrator 29.4.0, SVG Export Plug-In . SVG Version: 2.1.0 Build 152)  -->
  <defs>
    <style>
      .st0 {
        fill: none;
        stroke: #231f20;
        stroke-miterlimit: 10;
        stroke-width: 4px;
      }
    </style>
  </defs>
  <path class="st0" d="M68.11,63.83s-17.4,3.58-28.94-11.47c-3.12-4.07-2.09-6.48,6.8-8.28,8.89-1.81,16.64,6.18,22.69,19.61,0,0-.55.14-.55.14Z"/>
  <path class="st0" d="M72.32,62.62s-12.19-7.05-10.33-23.78c.5-4.53,4.18-7.61,8.69-2.01,4.8,5.96,3.72,12.29,2.04,25.99l-.4-.2Z"/>
  <path class="st0" d="M70.09,65.46c-3.09,1.07-9.41,3.9-14.76,7.55-6.42,4.38-11.44,9.96-7.77,15.13,17.62,24.84,55.27-1.21,57.83-9.3.89-2.79-.87-7.07-3.4-9.25-15.11-13.01-31.9-4.13-31.9-4.13Z"/>
  <path class="st0" d="M54.94,73.13c-1.12,6.14,4.88,23.1,6.13,24.14"/>
  <path class="st0" d="M63.36,68.78s3.97,23.34,6.11,26.29l2.14,2.95"/>
  <path class="st0" d="M69.01,99.29c-.34,6.14.04,3.75.68,7.82.2,1.25-.68-7.82-.68-7.82Z"/>
  <path class="st0" d="M77.51,104.99c.43,1.19-3.11-7.18-3.11-7.18"/>
  <path class="st0" d="M88.05,93.31c-.34,6.14.04,3.75.68,7.82.2,1.25-.68-7.82-.68-7.82Z"/>
  <path class="st0" d="M96.27,97.91c.43,1.19-3.11-7.18-3.11-7.18"/>
  <path class="st0" d="M47.33,86.79c-3,.57-1.82.44-3.79,1.16-.6.22,3.79-1.16,3.79-1.16Z"/>
  <path class="st0" d="M89.84,72.84c1.46-.38.9-3.98-.29-4.08-2.5-.22-1.87,4.65.29,4.08Z"/>
</svg>